HIERARCHY
ROOT Hips
{
 OFFSET 0.000000 0.000000 0.000000
 CHANNELS 6 Xposition Yposition Zposition Yrotation Xrotation Zrotation
 JOINT Chest
 {
  OFFSET 0.000000 9.585900 0.002600
  CHANNELS 3 Yrotation Xrotation Zrotation
  JOINT Chest2
  {
   OFFSET 0.000000 9.601200 -0.005300
   CHANNELS 3 Yrotation Xrotation Zrotation
   JOINT Chest3
   {
    OFFSET 0.000000 9.561800 0.000000
    CHANNELS 3 Yrotation Xrotation Zrotation
    JOINT Chest4
    {
     OFFSET 0.000000 9.552100 0.000000
     CHANNELS 3 Yrotation Xrotation Zrotation
     JOINT Neck
     {
      OFFSET 0.000000 14.453000 0.000000
      CHANNELS 3 Yrotation Xrotation Zrotation
      JOINT Head
      {
       OFFSET 0.000000 8.936500 -0.011300
       CHANNELS 3 Yrotation Xrotation Zrotation
       End Site
       {
        OFFSET 0.000000 17.073600 -0.006000
       }
      }
     }
     JOINT RightCollar
     {
      OFFSET -2.921100 9.558500 0.000000
      CHANNELS 3 Yrotation Xrotation Zrotation
      JOINT RightShoulder
      {
       OFFSET -13.519700 0.000000 0.000000
       CHANNELS 3 Yrotation Xrotation Zrotation
       JOINT RightElbow
       {
        OFFSET 0.000000 -29.696600 0.000000
        CHANNELS 3 Yrotation Xrotation Zrotation
        JOINT RightWrist
        {
         OFFSET 0.000000 -24.004700 0.000000
         CHANNELS 3 Yrotation Xrotation Zrotation
         End Site
         {
          OFFSET 0.000000 -17.728500 0.000000
         }
        }
       }
      }
     }
     JOINT LeftCollar
     {
      OFFSET 2.921100 9.558500 0.000000
      CHANNELS 3 Yrotation Xrotation Zrotation
      JOINT LeftShoulder
      {
       OFFSET 13.519700 0.000000 0.000000
       CHANNELS 3 Yrotation Xrotation Zrotation
       JOINT LeftElbow
       {
        OFFSET 0.000000 -29.696600 0.000000
        CHANNELS 3 Yrotation Xrotation Zrotation
        JOINT LeftWrist
        {
         OFFSET 0.000000 -24.004700 0.000000
         CHANNELS 3 Yrotation Xrotation Zrotation
         End Site
         {
          OFFSET 0.000000 -17.728500 0.000000
         }
        }
       }
      }
     }
    }
   }
  }
 }
 JOINT RightHip
 {
  OFFSET -7.771700 -0.012900 -0.001300
  CHANNELS 3 Yrotation Xrotation Zrotation
  JOINT RightKnee
  {
   OFFSET 0.000000 -40.869800 0.001200
   CHANNELS 3 Yrotation Xrotation Zrotation
   JOINT RightAnkle
   {
    OFFSET 0.000000 -39.717900 0.002100
    CHANNELS 3 Yrotation Xrotation Zrotation
    JOINT RightToe
    {
     OFFSET 0.000000 -4.965400 11.033500
     CHANNELS 3 Yrotation Xrotation Zrotation
     End Site
     {
      OFFSET 0.000000 -1.423100 5.872300
     }
    }
   }
  }
 }
 JOINT LeftHip
 {
  OFFSET 7.771700 -0.012900 -0.001300
  CHANNELS 3 Yrotation Xrotation Zrotation
  JOINT LeftKnee
  {
   OFFSET 0.000000 -40.869800 0.001200
   CHANNELS 3 Yrotation Xrotation Zrotation
   JOINT LeftAnkle
   {
    OFFSET 0.000000 -39.717900 0.002100
    CHANNELS 3 Yrotation Xrotation Zrotation
    JOINT LeftToe
    {
     OFFSET 0.000000 -4.965400 11.033500
     CHANNELS 3 Yrotation Xrotation Zrotation
     End Site
     {
      OFFSET 0.000000 -1.423100 5.872300
     }
    }
   }
  }
 }
}
MOTION
Frames: 13
Frame Time: 0.008333
0.000000 85.388000 0.000000 0.000000 -5.767877 0.000000 0.000000 11.653817 0.000000 0.000000 -5.885947 0.000000 0.000000 -0.000000 0.000000 0.000000 -0.000000 0.000000 0.000000 12.528835 0.000000 0.000000 0.711642 0.000000 0.000000 -0.000000 0.000000 0.000000 0.000000 -90.000000 0.000000 -2.309062 0.000000 0.000000 2.309062 0.000000 0.000000 -0.000000 0.000000 0.000000 -0.000000 90.000000 0.000000 -2.309062 0.000000 0.000000 2.309062 0.000000 0.000000 8.520406 0.000000 0.000000 1.905762 0.000000 -0.000000 -4.658285 0.000000 0.000000 -0.000000 0.000000 0.000000 8.520406 0.000000 0.000000 1.905762 0.000000 -0.000000 -4.658285 0.000000 0.000000 -0.000000 0.000000
-214.485815 58.069899 26.210938 175.754429 -52.337036 -4.284121 4.408588 22.631390 3.282012 2.284324 12.964630 1.687620 2.936120 16.193990 2.207292 2.289077 12.994813 1.664271 2.498443 17.586718 2.659341 3.719325 -3.100862 4.024520 3.219251 4.343261 1.118557 -15.121182 -20.031305 -1.026541 -69.676182 -22.183988 121.442809 -17.944820 -22.191843 -19.871775 -9.879160 3.276474 0.211644 10.331047 -25.441024 -1.603322 74.006968 -31.299021 -112.110246 21.721909 -20.145500 12.687668 3.495506 -19.402603 -1.713818 -36.447086 73.188155 -38.821891 4.899077 -12.910323 10.298215 0.052830 -0.104408 0.008173 -5.238623 -18.787700 9.773281 54.053157 78.713679 52.280480 4.391901 -15.296194 -16.461829 0.040607 0.094187 0.020631
-214.486634 58.071220 26.212165 175.750405 -52.346798 -4.296422 4.411486 22.625880 3.297339 2.283420 12.954178 1.696194 2.935441 16.188112 2.216439 2.280374 12.998998 1.668389 2.790550 17.608728 2.495023 4.297968 -3.044371 3.625925 3.133120 4.460902 1.076650 -15.365786 -20.015904 -0.613505 -69.898129 -20.973329 121.219948 -18.203065 -22.948755 -21.274278 -9.880709 3.292258 0.238948 10.593127 -25.328482 -1.831040 74.243671 -30.284056 -111.711671 22.294475 -21.587023 14.873012 3.490632 -19.386979 -1.702265 -36.400390 73.180966 -38.766706 4.895681 -12.909207 10.291713 0.052083 -0.098642 0.008647 -5.240556 -18.778137 9.784408 54.050716 78.713478 52.279452 4.400679 -15.291655 -16.461441 0.035352 0.092083 0.018088
-214.488728 58.072306 26.213428 175.751370 -52.354365 -4.305849 4.413625 22.627718 3.307172 2.282614 12.930788 1.709274 2.935090 16.180095 2.226466 2.274229 13.000191 1.672576 3.080273 17.629551 2.326648 4.877119 -2.989300 3.218156 3.084157 4.537431 1.038670 -15.714758 -19.896618 -0.234349 -70.074752 -19.795434 121.051313 -18.469718 -23.565916 -22.415137 -9.886138 3.322421 0.238276 10.892954 -25.200802 -2.048749 74.501545 -29.337675 -111.412876 22.702770 -22.745950 16.834527 3.487451 -19.378638 -1.693047 -36.384619 73.179374 -38.747424 4.885456 -12.903036 10.290422 0.048399 -0.101664 0.010109 -5.240543 -18.774302 9.782461 54.077182 78.709910 52.311810 4.416166 -15.284349 -16.463398 0.026932 0.088218 0.014439
-214.491612 58.073609 26.214194 175.757741 -52.362979 -4.313698 4.408576 22.613484 3.315667 2.283661 12.923546 1.722037 2.937247 16.170180 2.237512 2.284524 12.945815 1.711710 3.341519 17.700425 2.124603 5.450177 -2.940947 2.803606 3.009889 4.669612 0.968569 -16.138570 -19.718441 0.110758 -70.181729 -18.662849 120.949538 -18.731194 -24.121240 -23.379549 -9.900455 3.419262 0.265927 11.267344 -25.037466 -2.357636 74.705918 -28.468103 -111.157319 22.974203 -23.689699 18.491635 3.484128 -19.366843 -1.692947 -36.366639 73.178447 -38.726458 4.887104 -12.901166 10.295561 0.049751 -0.103741 0.006837 -5.244496 -18.768025 9.766852 54.078313 78.707934 52.326721 4.436752 -15.278720 -16.472620 0.022234 0.086429 0.011658
-214.492299 58.075555 26.214405 175.734887 -52.376402 -4.309028 4.417581 22.581025 3.350540 2.288234 12.937256 1.721385 2.942173 16.159441 2.249678 2.288259 12.937285 1.721368 3.613951 17.716152 1.945575 6.011689 -2.903756 2.383874 2.941465 4.754892 0.920842 -16.634237 -19.496799 0.410431 -70.235973 -17.602361 120.913384 -18.956669 -24.642897 -24.270655 -9.895661 3.482758 0.340709 11.703218 -24.835311 -2.694023 74.840093 -27.650607 -110.932658 23.124610 -24.436969 19.846789 3.505695 -19.352630 -1.687039 -36.360240 73.176926 -38.701550 4.894089 -12.898475 10.291248 0.050021 -0.106051 0.010155 -5.233291 -18.754152 9.776622 54.068657 78.711083 52.322384 4.440031 -15.274976 -16.476599 0.021642 0.081013 0.011741
-214.494332 58.076778 26.214316 175.716347 -52.384142 -4.296586 4.422250 22.568256 3.367060 2.291637 12.941875 1.717030 2.950823 16.134800 2.276246 2.286235 12.939539 1.718687 3.886086 17.710950 1.774003 6.557300 -2.881616 1.960325 2.878024 4.834210 0.872875 -17.182766 -19.252718 0.669513 -70.283983 -16.654985 120.928611 -19.130935 -25.141618 -25.177772 -9.879810 3.532298 0.404989 12.211699 -24.595690 -3.023849 74.921182 -26.932188 -110.737919 23.232059 -24.997370 20.919299 3.524486 -19.345021 -1.690028 -36.348715 73.181660 -38.678978 4.895863 -12.897675 10.288499 0.053537 -0.108142 0.010958 -5.219854 -18.746338 9.767355 54.080233 78.706863 52.341500 4.448100 -15.274643 -16.480346 0.017347 0.080925 0.009666
-214.496109 58.077039 26.214285 175.703288 -52.383489 -4.286869 4.422333 22.554484 3.383795 2.294077 12.939927 1.710778 2.955721 16.117307 2.306290 2.273625 12.961301 1.689550 4.162321 17.674332 1.624273 7.081991 -2.876657 1.535559 2.825600 4.902191 0.828275 -17.773477 -19.002893 0.905892 -70.342894 -15.855097 120.971908 -19.249468 -25.622691 -26.131464 -9.839327 3.567066 0.495860 12.819861 -24.327226 -3.379207 74.961477 -26.379706 -110.577777 23.375460 -25.416387 21.733855 3.538353 -19.345482 -1.696343 -36.336388 73.185099 -38.658023 4.903687 -12.896422 10.289105 0.050014 -0.110889 0.007076 -5.211478 -18.748961 9.763184 54.091380 78.705624 52.356020 4.449023 -15.271268 -16.479971 0.017652 0.077329 0.007785
-214.496865 58.076218 26.214495 175.691669 -52.372983 -4.281554 4.420492 22.539109 3.403448 2.297492 12.923806 1.721422 2.949463 16.117590 2.322351 2.281140 12.942675 1.693408 4.394129 17.669880 1.448212 7.582496 -2.889028 1.112964 2.775842 4.978918 0.762569 -18.423936 -18.725349 1.097838 -70.397626 -15.215509 121.025064 -19.312641 -26.078690 -27.087674 -9.806916 3.640344 0.553550 13.537846 -24.041203 -3.763887 74.978988 -25.986927 -110.480380 23.538133 -25.735963 22.384566 3.546919 -19.356569 -1.697272 -36.336552 73.181405 -38.651165 4.912709 -12.889888 10.291685 0.050500 -0.113043 0.004239 -5.205285 -18.762890 9.764412 54.104224 78.705077 52.372884 4.451818 -15.266463 -16.481279 0.017648 0.074095 0.007421
-214.493650 58.075682 26.214400 175.705144 -52.360154 -4.317102 4.410983 22.530283 3.447863 2.287192 12.909166 1.764325 2.942243 16.123999 2.303431 2.285973 12.913020 1.747505 4.593804 17.672318 1.222035 8.051849 -2.918988 0.696776 2.687035 5.127969 0.583489 -19.101651 -18.489448 1.354399 -70.434095 -14.732480 121.085003 -19.328228 -26.499391 -27.974923 -9.762896 3.720026 0.557813 14.348143 -23.747911 -4.163500 75.002578 -25.708444 -110.464986 23.670932 -25.994063 22.966296 3.530185 -19.370597 -1.672842 -36.377258 73.173343 -38.685846 4.934812 -12.912352 10.300376 0.038119 -0.088713 -0.002537 -5.220551 -18.776732 9.784460 54.121870 78.704817 52.400955 4.456372 -15.245738 -16.482933 0.012564 0.055074 0.002665
-214.494675 58.075723 26.212417 175.701666 -52.351177 -4.310803 4.403945 22.536904 3.466308 2.284247 12.898100 1.756249 2.940997 16.130963 2.337947 2.282784 12.907831 1.775482 4.786864 17.641274 1.023574 8.481068 -2.967733 0.294875 2.602163 5.245318 0.415890 -19.809093 -18.247153 1.622252 -70.461526 -14.399769 121.154502 -19.304385 -26.872291 -28.751607 -9.699111 3.782412 0.590471 15.214653 -23.455191 -4.565315 75.049323 -25.513106 -110.528706 23.736935 -26.229037 23.519942 3.534640 -19.379282 -1.681611 -36.392593 73.175037 -38.697495 4.940583 -12.912820 10.304419 0.028694 -0.089049 -0.002440 -5.217765 -18.787469 9.777543 54.139849 78.704312 52.423495 4.457149 -15.245511 -16.486279 0.006307 0.054612 0.002392
-214.495641 58.075685 26.209878 175.703257 -52.337739 -4.306700 4.396762 22.540361 3.478129 2.280455 12.889304 1.755574 2.938887 16.134398 2.343286 2.280553 12.908031 1.780676 4.979358 17.611400 0.881336 8.866755 -3.035932 -0.085128 2.537504 5.332412 0.310553 -20.532303 -17.971129 1.873992 -70.508996 -14.223275 121.240346 -19.255740 -27.187007 -29.424311 -9.615297 3.863601 0.675305 16.096791 -23.171848 -4.968837 75.134051 -25.401267 -110.655685 23.722878 -26.454444 24.055427 3.536020 -19.392214 -1.690234 -36.409770 73.178120 -38.713131 4.942396 -12.914328 10.309344 0.029161 -0.091408 -0.004427 -5.220163 -18.803952 9.771147 54.161701 78.704552 52.445851 4.460270 -15.242225 -16.488556 0.007468 0.052121 0.003150
-214.497720 58.070994 26.210297 175.702803 -52.284890 -4.294032 4.385733 22.494902 3.466698 2.282124 12.944366 1.809500 2.922707 16.090041 2.302779 2.288640 12.948702 1.826025 5.126717 17.550585 0.701853 9.208637 -3.119426 -0.441228 2.460290 5.370271 0.163107 -21.241960 -17.669936 2.131718 -70.604413 -14.203963 121.351071 -19.196129 -27.447857 -30.020357 -9.530477 3.903176 0.735134 16.956756 -22.903645 -5.371578 75.282216 -25.389777 -110.822722 23.642229 -26.659254 24.560228 3.541968 -19.447316 -1.715887 -36.406971 73.188014 -38.705777 4.954894 -12.921677 10.322134 0.019010 -0.088640 -0.017310 -5.223835 -18.860847 9.761627 54.203029 78.698166 52.486832 4.452191 -15.244898 -16.491338 0.010917 0.055985 0.004955
